<svg viewBox="0 0 128 128" xml:space="preserve" xmlns="http://www.w3.org/2000/svg"><path d="M64 12c-28.7 0-52 23.3-52 52s23.3 52 52 52 52-23.3 52-52-23.3-52-52-52zm0 100c-26.5 0-48-21.5-48-48s21.5-48 48-48 48 21.5 48 48-21.5 48-48 48z" fill="#e3e3e3" class="fill-3b97d3"></path><path d="M93.6 44.8c-1.1-.3-2.2.4-2.4 1.5L90 51.1C85.2 41.3 75.2 35 64 35c-16 0-29 13-29 29s13 29 29 29c13.2 0 24.8-8.9 28.1-21.7.3-1.1-.4-2.2-1.4-2.4-1.1-.3-2.2.4-2.4 1.4C85.4 81.3 75.4 89 64 89c-13.8 0-25-11.2-25-25s11.2-25 25-25c10.4 0 19.6 6.3 23.3 15.9l-7.5-1.8c-1.1-.3-2.2.4-2.4 1.5-.3 1.1.4 2.2 1.5 2.4L90 59.7c.2 0 .3.1.5.1.9 0 1.7-.6 1.9-1.5l2.7-10.9c.2-1.2-.4-2.3-1.5-2.6z" fill="#9e9e9e" class="fill-2c3e50"></path></svg>